<svg xmlns="http://www.w3.org/2000/svg" xmlns:xlink="http://www.w3.org/1999/xlink" fill="none" version="1.1" width="239" height="247.5" viewBox="0 0 239 247.5"><g><path d="M219,100.5L93.5,100.5Q93.009,100.5,92.5186,100.5241Q92.0283,100.5482,91.5397,100.5963Q91.0511,100.6444,90.5654,100.7165Q90.0797,100.7885,89.5982,100.8843Q89.1167,100.9801,88.6404,101.0994Q88.1641,101.2187,87.6943,101.3612Q87.2245,101.5037,86.7622,101.6691Q86.2999,101.8345,85.8463,102.0224Q85.3927,102.2103,84.9489,102.4202Q84.5051,102.6301,84.0721,102.8616Q83.6391,103.093,83.2179,103.3454Q82.79679999999999,103.5978,82.3886,103.8706Q81.9804,104.1434,81.586,104.4358Q81.1917,104.7283,80.8121,105.0398Q80.43260000000001,105.3512,80.06880000000001,105.681Q79.705,106.0107,79.3579,106.3579Q79.0107,106.705,78.681,107.0688Q78.35130000000001,107.4326,78.0398,107.8121Q77.72829999999999,108.1917,77.4358,108.586Q77.1434,108.9804,76.8706,109.3886Q76.5978,109.7968,76.3454,110.2179Q76.093,110.6391,75.86160000000001,111.0721Q75.6301,111.5051,75.4202,111.9489Q75.21029999999999,112.3927,75.0224,112.8463Q74.83449999999999,113.2999,74.6691,113.7622Q74.50370000000001,114.2245,74.3612,114.6943Q74.2187,115.1641,74.0994,115.6404Q73.9801,116.1167,73.8843,116.5982Q73.7885,117.0797,73.7165,117.5654Q73.64439999999999,118.051,73.5963,118.5397Q73.54820000000001,119.0283,73.5241,119.5186Q73.5,120.009,73.5,120.5Q73.5,120.991,73.5241,121.481Q73.54820000000001,121.972,73.5963,122.46Q73.64439999999999,122.949,73.7165,123.435Q73.7885,123.92,73.8843,124.402Q73.9801,124.883,74.0994,125.36Q74.2187,125.836,74.3612,126.306Q74.50370000000001,126.776,74.6691,127.238Q74.83449999999999,127.7,75.0224,128.154Q75.21029999999999,128.607,75.4202,129.051Q75.6301,129.495,75.86160000000001,129.928Q76.093,130.361,76.3454,130.78199999999998Q76.5978,131.203,76.8706,131.611Q77.1434,132.01999999999998,77.4358,132.414Q77.72829999999999,132.808,78.0398,133.188Q78.35130000000001,133.567,78.681,133.93099999999998Q79.0107,134.29500000000002,79.3579,134.642Q79.705,134.989,80.06880000000001,135.31900000000002Q80.43260000000001,135.649,80.8121,135.95999999999998Q81.1917,136.272,81.586,136.564Q81.9804,136.857,82.3886,137.12900000000002Q82.79679999999999,137.402,83.2179,137.655Q83.6391,137.90699999999998,84.0721,138.138Q84.5051,138.37,84.9489,138.57999999999998Q85.3927,138.79000000000002,85.8463,138.978Q86.2999,139.16500000000002,86.7622,139.33100000000002Q87.2245,139.49599999999998,87.6943,139.639Q88.1641,139.781,88.6404,139.901Q89.1167,140.01999999999998,89.5982,140.11599999999999Q90.0797,140.211,90.5654,140.284Q91.0511,140.356,91.5397,140.404Q92.0283,140.452,92.5186,140.476Q93.009,140.5,93.5,140.5L199,140.5L199,207.5L40,207.5L40,40L219,40Q219.491,40,219.981,39.975899999999996Q220.472,39.9518,220.96,39.9037Q221.449,39.855599999999995,221.935,39.783500000000004Q222.42,39.7115,222.902,39.615700000000004Q223.383,39.5199,223.86,39.4006Q224.336,39.2813,224.806,39.1388Q225.275,38.996300000000005,225.738,38.8309Q226.2,38.6655,226.654,38.477599999999995Q227.107,38.289699999999996,227.551,38.0798Q227.995,37.8699,228.428,37.638400000000004Q228.861,37.407,229.282,37.1546Q229.703,36.9022,230.111,36.629400000000004Q230.52,36.3566,230.914,36.064099999999996Q231.308,35.771699999999996,231.688,35.4602Q232.067,35.1487,232.431,34.819Q232.795,34.4893,233.142,34.1421Q233.489,33.795,233.819,33.431200000000004Q234.149,33.0674,234.46,32.6879Q234.772,32.3083,235.064,31.914Q235.357,31.5196,235.629,31.1114Q235.902,30.703200000000002,236.155,30.2821Q236.407,29.86093,236.638,29.42793Q236.87,28.99493,237.08,28.551099999999998Q237.29,28.10727,237.478,27.653669999999998Q237.665,27.20007,237.831,26.7378Q237.996,26.27552,238.139,25.80569Q238.281,25.33586,238.401,24.8596Q238.52,24.38334,238.616,23.90181Q238.711,23.42027,238.784,22.93461Q238.856,22.44895,238.904,21.96034Q238.952,21.47173,238.976,20.981353Q239,20.490972,239,20Q239,19.509028,238.976,19.018647Q238.952,18.52827,238.904,18.03966Q238.856,17.55105,238.784,17.06539Q238.711,16.57973,238.616,16.09819Q238.52,15.61666,238.401,15.1404Q238.281,14.66414,238.139,14.19431Q237.996,13.72448,237.831,13.2622Q237.665,12.79993,237.478,12.34633Q237.29,11.89273,237.08,11.4489Q236.87,11.00507,236.638,10.57207Q236.407,10.13907,236.155,9.7179Q235.902,9.2968,235.629,8.8886Q235.357,8.4804,235.064,8.086Q234.772,7.691700000000001,234.46,7.312099999999999Q234.149,6.932600000000001,233.819,6.5687999999999995Q233.489,6.205,233.142,5.857900000000001Q232.795,5.5107,232.431,5.180999999999999Q232.067,4.8513,231.688,4.5398Q231.308,4.228300000000001,230.914,3.9359Q230.52,3.6433999999999997,230.111,3.3705999999999996Q229.703,3.0977999999999994,229.282,2.8454000000000015Q228.861,2.593,228.428,2.3615999999999993Q227.995,2.1300999999999988,227.551,1.9202000000000012Q227.107,1.7103000000000002,226.654,1.522400000000001Q226.2,1.3344999999999985,225.738,1.1691000000000003Q225.276,1.0036999999999985,224.806,0.8612000000000002Q224.336,0.7186999999999983,223.86,0.5993999999999993Q223.383,0.4801000000000002,222.902,0.38429999999999964Q222.42,0.2884999999999991,221.935,0.21649999999999991Q221.449,0.14440000000000097,220.96,0.09629999999999939Q220.472,0.04820000000000135,219.981,0.024100000000000676Q219.491,0,219,0L20,0Q19.509028,0,19.018647,0.024100000000000676Q18.52827,0.04820000000000135,18.03966,0.09629999999999939Q17.55105,0.14440000000000097,17.06539,0.21649999999999991Q16.57973,0.2884999999999991,16.09819,0.38429999999999964Q15.61666,0.4801000000000002,15.1404,0.5993999999999993Q14.66414,0.7186999999999983,14.19431,0.8612000000000002Q13.72448,1.0036999999999985,13.2622,1.1691000000000003Q12.79993,1.3344999999999985,12.34633,1.522400000000001Q11.89273,1.7103000000000002,11.4489,1.9202000000000012Q11.00507,2.1300999999999988,10.57207,2.3615999999999993Q10.13907,2.593,9.7179,2.8454000000000015Q9.2968,3.0977999999999994,8.8886,3.3705999999999996Q8.4804,3.6433999999999997,8.086,3.9359Q7.691700000000001,4.228300000000001,7.312099999999999,4.5398Q6.932600000000001,4.8513,6.5687999999999995,5.180999999999999Q6.205,5.5107,5.857900000000001,5.857900000000001Q5.5107,6.205,5.180999999999999,6.5687999999999995Q4.8513,6.932600000000001,4.5398,7.312099999999999Q4.228300000000001,7.691700000000001,3.9359,8.086Q3.6433999999999997,8.4804,3.3705999999999996,8.8886Q3.0977999999999994,9.2968,2.8454000000000015,9.7179Q2.593,10.13907,2.3615999999999993,10.57207Q2.1300999999999988,11.00507,1.9202000000000012,11.4489Q1.7103000000000002,11.89273,1.522400000000001,12.34633Q1.3344999999999985,12.79993,1.1691000000000003,13.2622Q1.0036999999999985,13.72448,0.8612000000000002,14.19431Q0.7186999999999983,14.66414,0.5993999999999993,15.1404Q0.4801000000000002,15.61666,0.38429999999999964,16.09819Q0.2884999999999991,16.57973,0.21649999999999991,17.06539Q0.14440000000000097,17.55105,0.09629999999999939,18.03966Q0.04820000000000135,18.52827,0.024100000000000676,19.018647Q0,19.509028,0,20L0,227.5Q0,227.991,0.024100000000000676,228.481Q0.04820000000000135,228.972,0.09629999999999939,229.46Q0.14440000000000097,229.949,0.21649999999999991,230.435Q0.2884999999999991,230.92,0.38429999999999964,231.402Q0.4801000000000002,231.883,0.5993999999999993,232.36Q0.7186999999999983,232.836,0.8612000000000002,233.306Q1.0036999999999985,233.775,1.1691000000000003,234.238Q1.3344999999999985,234.7,1.522400000000001,235.154Q1.7103000000000002,235.607,1.9202000000000012,236.051Q2.1300999999999988,236.495,2.3615999999999993,236.928Q2.593,237.361,2.8454000000000015,237.782Q3.0977999999999994,238.203,3.3705999999999996,238.611Q3.6433999999999997,239.02,3.9359,239.414Q4.228300000000001,239.808,4.5398,240.188Q4.8513,240.567,5.180999999999999,240.931Q5.5107,241.295,5.857900000000001,241.642Q6.205,241.989,6.5687999999999995,242.319Q6.932600000000001,242.649,7.312099999999999,242.96Q7.691700000000001,243.272,8.086,243.564Q8.4804,243.857,8.8886,244.129Q9.2968,244.402,9.7179,244.655Q10.13907,244.907,10.57207,245.138Q11.00507,245.37,11.4489,245.58Q11.89273,245.79,12.34633,245.978Q12.79993,246.165,13.2622,246.331Q13.72448,246.496,14.19431,246.639Q14.66414,246.781,15.1404,246.901Q15.61666,247.02,16.09819,247.116Q16.57973,247.211,17.06539,247.284Q17.55105,247.356,18.03966,247.404Q18.52827,247.452,19.018647,247.476Q19.509028,247.5,20,247.5L219,247.5Q219.491,247.5,219.981,247.476Q220.472,247.452,220.96,247.404Q221.449,247.356,221.935,247.284Q222.42,247.211,222.902,247.116Q223.383,247.02,223.86,246.901Q224.336,246.781,224.806,246.639Q225.275,246.496,225.738,246.331Q226.2,246.165,226.654,245.978Q227.107,245.79,227.551,245.58Q227.995,245.37,228.428,245.138Q228.861,244.907,229.282,244.655Q229.703,244.402,230.111,244.129Q230.52,243.857,230.914,243.564Q231.308,243.272,231.688,242.96Q232.067,242.649,232.431,242.319Q232.795,241.989,233.142,241.642Q233.489,241.295,233.819,240.931Q234.149,240.567,234.46,240.188Q234.772,239.808,235.064,239.414Q235.357,239.02,235.629,238.611Q235.902,238.203,236.155,237.782Q236.407,237.361,236.638,236.928Q236.87,236.495,237.08,236.051Q237.29,235.607,237.478,235.154Q237.665,234.7,237.831,234.238Q237.996,233.775,238.139,233.306Q238.281,232.836,238.401,232.36Q238.52,231.883,238.616,231.402Q238.711,230.92,238.784,230.435Q238.856,229.949,238.904,229.46Q238.952,228.972,238.976,228.481Q239,227.991,239,227.5L239,120.5Q239,120.009,238.976,119.5187Q238.952,119.0283,238.904,118.5397Q238.856,118.0511,238.784,117.5654Q238.711,117.0797,238.616,116.5982Q238.52,116.1167,238.401,115.6404Q238.281,115.1641,238.139,114.6943Q237.996,114.2245,237.831,113.7622Q237.665,113.2999,237.478,112.8463Q237.29,112.3927,237.08,111.9489Q236.87,111.5051,236.638,111.0721Q236.407,110.6391,236.155,110.2179Q235.902,109.7968,235.629,109.3886Q235.357,108.9804,235.064,108.586Q234.772,108.1917,234.46,107.8121Q234.149,107.4326,233.819,107.0688Q233.489,106.705,233.142,106.3579Q232.795,106.0107,232.431,105.681Q232.067,105.3512,231.688,105.0398Q231.308,104.7283,230.914,104.4358Q230.52,104.1434,230.111,103.8706Q229.703,103.5978,229.282,103.3454Q228.861,103.093,228.428,102.8616Q227.995,102.6301,227.551,102.4202Q227.107,102.2103,226.654,102.0224Q226.2,101.8345,225.738,101.6691Q225.276,101.5037,224.806,101.3612Q224.336,101.2187,223.86,101.0994Q223.383,100.9801,222.902,100.8843Q222.42,100.7885,221.935,100.7165Q221.449,100.6444,220.96,100.5963Q220.472,100.5482,219.981,100.5241Q219.491,100.5,219,100.5Z" fill-rule="evenodd" fill="#4D4D4D" fill-opacity="1"/></g></svg>